<svg width="73" height="73" viewBox="0 0 73 73" fill="none" xmlns="http://www.w3.org/2000/svg">
<path d="M11.5303 4.03785C10.1007 4.06095 8.66946 4.5326 7.29487 5.61405C11.3007 4.48526 16.5402 8.65025 18.333 13.4737C13.6154 13.8822 7.28432 16.4953 5.16261 22.141C11.6046 17.0943 16.2034 15.0822 19.0201 18.057C16.1172 20.9416 13.6459 25.1652 14.0695 29.0441C15.281 26.2635 18.4383 22.3135 21.7349 20.9234C21.7324 20.9585 21.7307 20.9937 21.7296 21.0289C21.7296 22.4116 22.8503 23.5326 24.2333 23.5326C24.6207 23.5319 25.0026 23.4413 25.349 23.268C25.6955 23.0947 25.997 22.8434 26.2298 22.5338C32.3726 31.4173 32.8886 37.3566 32.9296 46.9332C33.1035 47.47 33.4015 48.8804 34.1717 48.8328C34.4765 48.8114 35.2961 48.2342 35.4891 46.7075C35.3953 36.4305 34.5393 29.4741 26.9846 19.2056C26.9972 19.1434 27.0088 19.08 27.0194 19.0153C28.8401 15.3775 36.0215 17.2282 39.1681 17.9684C36.3233 14.5072 30.1765 13.2088 26.1564 13.6691C27.1526 10.2487 32.0848 8.56684 37.4945 7.98313C32.4639 5.91118 25.5717 7.61243 22.025 10.6325C19.3275 7.2634 15.4351 3.97526 11.5299 4.03799L11.5303 4.03785ZM45.118 12.5897C43.0624 12.5512 40.7542 13.3449 38.2973 15.3956C46.2228 14.0043 47.7396 17.3826 47.602 21.2765C43.6292 20.7112 38.266 21.6028 35.6648 24.768C37.8387 24.2564 41.9372 23.9302 44.8649 24.9961C44.5603 25.4205 44.3961 25.9295 44.3954 26.4518C44.3954 27.8344 45.5161 28.9552 46.8987 28.9555C47.0638 28.9545 47.2284 28.9373 47.3901 28.9042C43.2291 34.6258 41.1757 39.9412 40.3111 44.5543C41.1596 44.6462 42.005 44.7646 42.8462 44.9093C43.7397 40.19 46.0053 34.6294 50.9477 28.4777C51.1822 28.746 51.4713 28.9612 51.7956 29.1088C52.1199 29.2564 52.472 29.333 52.8283 29.3335C53.4181 29.3328 53.9887 29.1238 54.4395 28.7436C54.8903 28.3634 55.1924 27.8362 55.2925 27.255C58.766 27.5977 62.8168 30.0514 64.8324 32.13C63.9085 28.5168 60.3982 25.5378 56.8314 23.8141C59.6839 20.9466 66.0358 19.8448 68.968 19.9859C62.0941 16.815 56.5153 17.095 53.2756 18.6688C51.8584 15.5824 48.9207 12.6615 45.1183 12.5898L45.118 12.5897ZM2.56641 46.6231V49.1895H16.8576C18.931 48.222 21.1064 47.3511 23.3355 46.6231H2.56641ZM49.7156 46.6231C51.9592 47.3511 54.15 48.2218 56.2365 49.1895H70.4336V46.6231H49.7156ZM38.0444 46.9496C37.7641 49.3751 36.3563 51.2523 34.3519 51.393C31.9148 51.2382 30.8616 49.4533 30.4168 47.4811C25.6575 48.328 20.825 50.0497 16.5425 52.1909C11.2946 54.815 6.88168 58.1048 4.43161 60.9214C5.12839 61.1328 5.9033 61.3667 6.85544 61.612C9.17005 62.2084 12.0029 62.727 13.5817 62.5964C14.8385 62.4923 16.1552 61.8004 17.6295 60.9895C19.1038 60.1787 20.7406 59.2472 22.7386 59.1323C25.4476 58.9766 27.8732 59.9464 30.1299 60.849C32.3866 61.7518 34.4867 62.5894 36.5017 62.5921C37.7671 62.5938 39.1194 62.1226 40.6122 61.5627C42.105 61.0031 43.735 60.3554 45.5943 60.3111C49.9994 60.2064 53.6717 62.5379 57.0519 62.5924C59.133 62.6259 62.5455 62.0777 65.3531 61.5052C66.5952 61.252 67.6415 61.0105 68.5155 60.8052C66.1473 58.0403 61.7864 54.7898 56.5712 52.1963C50.8809 49.3667 44.1939 47.2605 38.0445 46.9497L38.0444 46.9496ZM24.1048 62.5847C21.5822 62.7073 19.0504 63.8123 16.802 64.8667C15.5171 65.4692 14.3292 66.071 13.3561 66.5043C12.3829 66.9376 11.5645 67.1543 11.4062 67.1543C7.7477 67.1543 4.42805 65.3426 2.56641 64.09V67.1515C4.75527 68.4143 7.87131 69.7207 11.4062 69.7207C12.4425 69.7207 13.3325 69.3244 14.4001 68.8489C15.4677 68.3734 16.6528 67.771 17.8916 67.1903C20.369 66.0287 23.0788 65.0182 25.0026 65.155C26.2473 65.2434 27.4921 66.0484 28.9164 67.0812C30.3412 68.1143 31.9194 69.3643 34.0136 69.7041C37.0149 70.1911 39.856 69.4175 42.5283 68.6754C45.201 67.9334 47.7186 67.2219 50.0722 67.4342C50.9276 67.5112 51.6921 67.9479 52.7622 68.5127C53.8321 69.0773 55.2137 69.7207 57.0312 69.7207C59.1614 69.7207 62.5405 69.1319 65.5199 68.5567C67.6704 68.1418 69.5406 67.7338 70.4336 67.535V64.913L70.4319 64.9059C70.4319 64.9056 67.9634 65.4716 65.0334 66.0371C62.1035 66.6026 58.6391 67.1543 57.0312 67.1543C55.7917 67.1543 54.9488 66.7651 53.9601 66.2433C52.9712 65.7214 51.8425 65.0171 50.303 64.8784C47.3013 64.6077 44.4881 65.4678 41.842 66.2025C39.1959 66.9372 36.7303 67.5453 34.4242 67.171C33.1615 66.9661 31.8735 66.0555 30.423 65.0038C28.9724 63.9519 27.3325 62.7478 25.185 62.5951C24.8143 62.5699 24.4493 62.568 24.1048 62.5846V62.5847Z" fill="#1E6091"/>
</svg>
