<svg width="79" height="79" viewBox="0 0 79 79" fill="none" xmlns="http://www.w3.org/2000/svg">
<mask id="mask0_55_44" style="mask-type:luminance" maskUnits="userSpaceOnUse" x="5" y="5" width="69" height="67">
<path d="M16.2248 53.9126C10.2669 55.7 6.5835 58.1687 6.5835 60.8959C6.5835 66.3502 21.3203 70.7709 39.5002 70.7709C57.68 70.7709 72.4168 66.3502 72.4168 60.8959C72.4168 58.1687 68.7318 55.7 62.7755 53.9126" stroke="white" stroke-width="2" stroke-linecap="round" stroke-linejoin="round"/>
<path d="M39.5003 57.6041C39.5003 57.6041 60.8962 43.6211 60.8962 27.4557C60.8962 15.9283 51.3174 6.58325 39.5003 6.58325C27.6832 6.58325 18.1045 15.9283 18.1045 27.4557C18.1045 43.6211 39.5003 57.6041 39.5003 57.6041Z" fill="white" stroke="white" stroke-width="2" stroke-linejoin="round"/>
<path d="M39.5002 36.2083C41.6827 36.2083 43.7758 35.3413 45.3191 33.7981C46.8623 32.2548 47.7293 30.1617 47.7293 27.9792C47.7293 25.7967 46.8623 23.7035 45.3191 22.1603C43.7758 20.617 41.6827 19.75 39.5002 19.75C37.3177 19.75 35.2245 20.617 33.6813 22.1603C32.138 23.7035 31.271 25.7967 31.271 27.9792C31.271 30.1617 32.138 32.2548 33.6813 33.7981C35.2245 35.3413 37.3177 36.2083 39.5002 36.2083Z" fill="black" stroke="black" stroke-width="2" stroke-linejoin="round"/>
</mask>
<g mask="url(#mask0_55_44)">
<path d="M0 0H79V79H0V0Z" fill="#1E6091"/>
</g>
</svg>
