<svg width="69" height="69" viewBox="0 0 69 69" fill="none" xmlns="http://www.w3.org/2000/svg">
<g clip-path="url(#clip0_55_40)">
<path fill-rule="evenodd" clip-rule="evenodd" d="M40.4291 0C37.6395 0 34.5986 0.561857 32.1392 1.73486C29.8179 2.83886 27.0628 5.01236 27.0628 8.58557C27.0628 10.9217 28.8814 12.0947 29.5862 12.5136C30.0298 12.7699 30.5079 13.0065 30.8972 13.1889L31.0648 13.2677C31.4164 13.432 31.7597 13.6012 32.0949 13.7754C33.5636 14.5442 34.8598 15.5004 35.5547 17.526C36.4813 20.2367 35.7519 22.632 33.6424 24.5443C31.4147 26.565 27.5113 28.0781 22.3363 28.0781C18.6546 28.0781 15.5841 27.6542 12.8931 26.5995C10.2416 25.5546 7.797 23.8296 5.45593 20.9908C4.92866 20.3861 4.18625 20.0109 3.38664 19.9452C2.58703 19.8794 1.79332 20.1282 1.17435 20.6387C0.555372 21.1492 0.159984 21.881 0.0722908 22.6785C-0.0154022 23.476 0.21152 24.2762 0.704786 24.909C3.657 28.4871 6.9345 30.8726 10.6408 32.3265C14.3027 33.7706 18.216 34.2388 22.3363 34.2388C28.5956 34.2388 34.1254 32.4152 37.7775 29.1131C41.5528 25.6926 43.1743 20.7739 41.3852 15.5349C39.9707 11.3899 37.1023 9.43821 34.9436 8.30957L33.9086 7.80193C34.1386 7.63764 34.4326 7.46843 34.7908 7.29429C36.2546 6.59443 38.3541 6.16071 40.4291 6.16071C47.9747 6.16071 52.3266 8.625 55.0127 11.3357C57.753 14.1056 59.0049 17.3584 59.892 19.6601L59.9314 19.7784C61.8486 24.7562 62.5781 29.8474 62.7752 35.2393C62.8059 36.0562 63.1599 36.8275 63.7593 37.3835C64.3587 37.9395 65.1544 38.2345 65.9714 38.2038C66.7884 38.1731 67.5596 37.8191 68.1156 37.2197C68.6716 36.6203 68.9666 35.8246 68.9359 35.0076C68.7191 29.2116 67.9206 23.3861 65.6831 17.5605L65.5845 17.3091C64.6974 14.9927 63.0512 10.7049 59.3893 7.0035C55.476 3.05079 49.5174 0 40.4291 0ZM14.8547 40.02C16.4886 39.0503 18.3618 38.5585 20.2614 38.6006C22.4792 38.6006 24.2141 39.1427 25.668 40.02C26.9544 40.7987 27.9549 41.8041 28.7336 42.5878L28.8864 42.7406C29.7439 43.608 30.3994 44.229 31.2077 44.6824C31.9618 45.1014 32.9574 45.4365 34.5 45.4365C36.0426 45.4365 37.0382 45.1014 37.7923 44.6824C38.6006 44.229 39.2561 43.608 40.1136 42.7406L40.2615 42.5927C41.1751 41.6119 42.2064 40.7478 43.332 40.02C44.9659 39.0503 46.8391 38.5585 48.7386 38.6006C50.9565 38.6006 52.6914 39.1427 54.1453 40.02C55.4316 40.7987 56.4321 41.8041 57.2109 42.5878L57.3587 42.7406C58.2212 43.608 58.8767 44.229 59.685 44.6824C60.4391 45.1014 61.4346 45.4365 62.9773 45.4365H66.5357C67.1893 45.4365 67.8161 45.6961 68.2782 46.1583C68.7404 46.6204 69 47.2472 69 47.9008V55.5696H62.9773C61.5332 55.5696 60.6411 55.2641 59.9856 54.8944C59.2611 54.4903 58.6599 53.9284 57.7974 53.061L57.6396 52.9033C56.6958 51.8883 55.6296 50.9943 54.4656 50.2419C52.7336 49.2174 50.7506 48.6952 48.7386 48.7337C46.4124 48.7337 44.5641 49.3104 43.0116 50.2468C41.8431 50.9932 40.7748 51.8859 39.8327 52.9033L39.675 53.061C38.8174 53.9284 38.2161 54.4903 37.4916 54.8944C36.8361 55.2641 35.9441 55.5696 34.5 55.5696C33.0559 55.5696 32.1639 55.2641 31.5084 54.8944C30.7839 54.4903 30.1875 53.9284 29.325 53.061L29.1673 52.9033C28.3935 52.1246 27.3437 51.0649 25.9884 50.2419C24.2563 49.2174 22.2733 48.6952 20.2614 48.7337C17.9351 48.7337 16.0869 49.3104 14.5344 50.2468C13.3675 50.9935 12.3009 51.8862 11.3604 52.9033L11.2026 53.061C10.3401 53.9284 9.73886 54.4903 9.01436 54.8944C8.35886 55.2641 7.46679 55.5696 6.02271 55.5696H0V47.9057C0 47.2521 0.259629 46.6253 0.721773 46.1632C1.18392 45.7011 1.81072 45.4414 2.46429 45.4414H6.02271C7.56536 45.4414 8.56093 45.1063 9.315 44.6874C10.1233 44.2339 10.7788 43.6129 11.6364 42.7455L11.7891 42.5976C12.6976 41.6134 13.7278 40.7488 14.8547 40.0249M62.9773 61.7353H69V65.3085C69 65.9621 68.7404 66.5889 68.2782 67.051C67.8161 67.5132 67.1893 67.7728 66.5357 67.7728C66.5357 67.7728 47.0186 69 34.5 69C21.9814 69 2.46429 67.7679 2.46429 67.7679C1.81072 67.7679 1.18392 67.5082 0.721773 67.0461C0.259629 66.5839 0 65.9571 0 65.3036V61.7304H6.02271C8.45743 61.7304 10.3944 61.1882 12.0257 60.2715C13.5881 59.3942 14.7266 58.2508 15.5694 57.408C16.4811 56.4864 17.043 55.9294 17.7182 55.5204C18.2899 55.1754 19.0341 54.8944 20.2614 54.8944C21.4886 54.8944 22.2328 55.1754 22.8045 55.5204C23.4797 55.9294 24.0366 56.4864 24.9583 57.408C25.7961 58.2459 26.9346 59.3942 28.497 60.2666C30.1284 61.1833 32.0653 61.7304 34.5 61.7304C36.9347 61.7304 38.8716 61.1882 40.503 60.2715C42.0654 59.3942 43.2039 58.2508 44.0417 57.408C44.9584 56.4864 45.5203 55.9294 46.1955 55.5204C46.9654 55.0715 47.8484 54.8541 48.7386 54.8944C49.9708 54.8944 50.7101 55.1754 51.2818 55.5204C51.957 55.9294 52.5139 56.4864 53.4306 57.408C54.2685 58.2459 55.4119 59.3942 56.9743 60.2666C58.6007 61.1833 60.5426 61.7304 62.9773 61.7304" fill="#1E6091"/>
</g>
<defs>
<clipPath id="clip0_55_40">
<rect width="69" height="69" fill="white"/>
</clipPath>
</defs>
</svg>
