<svg width="82" height="82" viewBox="0 0 82 82" fill="none" xmlns="http://www.w3.org/2000/svg">
<path d="M19.3997 70.0416C16.8645 63.3312 15.3748 54.5504 15.3748 45.0487C15.3748 34.9524 17.0558 25.6933 19.8712 18.8633C21.272 15.4535 23.0145 12.5254 25.0713 10.4105C27.1418 8.28534 29.6941 6.83325 32.6222 6.83325C35.5571 6.83325 38.1093 8.28534 40.1764 10.4105C42.2367 12.5254 43.9758 15.4535 45.38 18.8633C45.7308 19.7152 46.0633 20.6024 46.3777 21.5249C46.7626 20.9737 47.1498 20.4418 47.5393 19.9293C49.7226 17.0764 52.0972 14.7531 54.5777 13.2805C57.065 11.7977 59.8496 11.0665 62.6273 11.8113C65.4085 12.5562 67.4551 14.5788 68.8696 17.1072C70.2773 19.6253 71.1758 22.8233 71.6371 26.3868C72.563 33.5277 71.8079 42.6604 69.2659 52.1553C67.4653 58.8759 64.9746 65.002 62.1148 70.0416H68.3332C69.0128 70.0416 69.6646 70.3116 70.1451 70.7921C70.6257 71.2727 70.8957 71.9245 70.8957 72.6041C70.8957 73.2837 70.6257 73.9355 70.1451 74.416C69.6646 74.8966 69.0128 75.1666 68.3332 75.1666H13.6665C12.9869 75.1666 12.3351 74.8966 11.8545 74.416C11.374 73.9355 11.104 73.2837 11.104 72.6041C11.104 71.9245 11.374 71.2727 11.8545 70.7921C12.3351 70.3116 12.9869 70.0416 13.6665 70.0416H19.3997ZM24.6101 20.8143C22.1057 26.8857 20.4998 35.4547 20.4998 45.0487C20.4998 55.0732 22.2526 63.9531 24.9313 70.0416H34.4569C33.3499 62.7709 34.0674 53.2828 36.7085 43.4326C38.2802 37.5593 40.378 32.1507 42.7833 27.5246C42.2351 25.2382 41.5191 22.9953 40.6411 20.8143C39.3872 17.7734 37.959 15.4774 36.5069 13.9843C35.0617 12.5015 33.7497 11.9583 32.6256 11.9583C31.4981 11.9583 30.1895 12.5015 28.7443 13.9843C27.2888 15.4774 25.8606 17.77 24.6101 20.8143ZM56.1254 70.0416C58.2061 66.7727 59.9658 63.3103 61.3803 59.7028L53.0573 52.0973C52.7545 51.8196 52.3894 51.6188 51.9928 51.5117C51.5962 51.4047 51.1797 51.3946 50.7783 51.4823L39.7664 53.9081C38.8713 60.0922 38.8781 65.6751 39.6503 70.0416H56.1254ZM45.175 34.4775L53.375 32.6735C54.5779 32.4087 55.8269 32.4369 57.0167 32.7556C58.2065 33.0743 59.3022 33.6742 60.2118 34.5048L66.4096 40.1697C67.0143 35.2668 67.0417 30.7875 66.5565 27.0497C66.1465 23.8756 65.3812 21.3712 64.3972 19.6116C63.4166 17.8623 62.3369 17.0388 61.3017 16.7621C60.2698 16.4888 58.9203 16.6596 57.1983 17.6846C55.466 18.713 53.5527 20.5033 51.612 23.0419C49.3228 26.0383 47.102 29.9333 45.175 34.4775ZM43.0225 40.2004C42.1258 42.9062 41.3709 45.657 40.7607 48.4414L49.6748 46.4803C50.8782 46.2149 52.1278 46.2427 53.3182 46.5615C54.5087 46.8802 55.605 47.4804 56.5149 48.3116L63.2526 54.4684C64.1167 51.7518 64.8386 48.9919 65.4153 46.2001L56.7541 38.2871C56.4507 38.0106 56.0854 37.811 55.6888 37.7052C55.2922 37.5994 54.876 37.5904 54.4752 37.6789L43.0225 40.2004Z" fill="#1E6091"/>
</svg>
